
#ifndef CHRISTMAS_SONGS_H
#define CHRISTMAS_SONGS_H

// We Wish You a Merry Christmas
const int weWishYouMerryChristmas[] = {
  NOTE_C5,4, //1
  NOTE_F5,4, NOTE_F5,8, NOTE_G5,8, NOTE_F5,8, NOTE_E5,8,
  NOTE_D5,4, NOTE_D5,4, NOTE_D5,4,
  NOTE_G5,4, NOTE_G5,8, NOTE_A5,8, NOTE_G5,8, NOTE_F5,8,
  NOTE_E5,4, NOTE_C5,4, NOTE_C5,4,
  NOTE_A5,4, NOTE_A5,8, NOTE_AS5,8, NOTE_A5,8, NOTE_G5,8,
  NOTE_F5,4, NOTE_D5,4, NOTE_C5,8, NOTE_C5,8,
  NOTE_D5,4, NOTE_G5,4, NOTE_E5,4,

  NOTE_F5,2, NOTE_C5,4,
  NOTE_F5,4, NOTE_F5,8, NOTE_G5,8, NOTE_F5,8, NOTE_E5,8,
  NOTE_D5,4, NOTE_D5,4, NOTE_D5,4,
  NOTE_G5,4, NOTE_G5,8, NOTE_A5,8, NOTE_G5,8, NOTE_F5,8,
  NOTE_E5,4, NOTE_C5,4, NOTE_C5,4,
  NOTE_A5,4, NOTE_A5,8, NOTE_AS5,8, NOTE_A5,8, NOTE_G5,8,
  NOTE_F5,4, NOTE_D5,4, NOTE_C5,8, NOTE_C5,8,
  NOTE_D5,4, NOTE_G5,4, NOTE_E5,4,
  NOTE_F5,2, REST,4
};

// Jingle Bells
const int jingleBells[] = {
  NOTE_E5, 8, NOTE_E5, 8, NOTE_E5, 4,
  NOTE_E5, 8, NOTE_E5, 8, NOTE_E5, 4,
  NOTE_E5, 8, NOTE_G5, 8, NOTE_C5, 8, NOTE_D5, 8,
  NOTE_E5, 2,
  
  NOTE_F5, 8, NOTE_F5, 8, NOTE_F5, 8, NOTE_F5, 8,
  NOTE_F5, 8, NOTE_E5, 8, NOTE_E5, 8, NOTE_E5, 8,
  NOTE_E5, 8, NOTE_D5, 8, NOTE_D5, 8, NOTE_E5, 8,
  NOTE_D5, 4, NOTE_G5, 4,
  
  NOTE_E5, 8, NOTE_E5, 8, NOTE_E5, 4,
  NOTE_E5, 8, NOTE_E5, 8, NOTE_E5, 4,
  NOTE_E5, 8, NOTE_G5, 8, NOTE_C5, 8, NOTE_D5, 8,
  NOTE_E5, 2,
  
  NOTE_F5, 8, NOTE_F5, 8, NOTE_F5, 8, NOTE_F5, 8,
  NOTE_F5, 8, NOTE_E5, 8, NOTE_E5, 8, NOTE_E5, 8,
  NOTE_G5, 8, NOTE_G5, 8, NOTE_F5, 8, NOTE_D5, 8,
  NOTE_C5, 2,
  
  REST, 4
};

// Silent Night
const int silentNight[] = {
  NOTE_G4,4, NOTE_A4,4, NOTE_G4,4, NOTE_E4,2,
  NOTE_G4,4, NOTE_A4,4, NOTE_G4,4, NOTE_E4,2,
  NOTE_D5,2, NOTE_D5,2,
  NOTE_C5,2, NOTE_C5,2,
  NOTE_G4,4, NOTE_A4,4, NOTE_G4,4, NOTE_E4,2,
  NOTE_G4,4, NOTE_A4,4, NOTE_G4,4, NOTE_E4,2,
  NOTE_D5,2, NOTE_D5,2,
  NOTE_C5,4, NOTE_E5,4, NOTE_C5,4, NOTE_G4,2,
  NOTE_F4,4, NOTE_F4,4, NOTE_E4,2,
  NOTE_E4,2,
  NOTE_G4,4, NOTE_C5,4, NOTE_B4,4, NOTE_A4,2,
  NOTE_A4,2,
  NOTE_G4,4, NOTE_A4,4, NOTE_G4,4, NOTE_E4,2,
  NOTE_G4,4, NOTE_A4,4, NOTE_G4,4, NOTE_E4,2,
  NOTE_D5,2, NOTE_D5,2,
  NOTE_C5,4, NOTE_E5,4, NOTE_C5,4, NOTE_G4,2,
  REST,4
};

#endif