#ifndef CUSTOM_SONGS_H
#define CUSTOM_SONGS_H

// Add your custom songs here

// Example: Twinkle Twinkle Little Star
const int twinkleStar[] = {
  NOTE_C4,4, NOTE_C4,4, NOTE_G4,4, NOTE_G4,4, NOTE_A4,4, NOTE_A4,4, NOTE_G4,2,
  NOTE_F4,4, NOTE_F4,4, NOTE_E4,4, NOTE_E4,4, NOTE_D4,4, NOTE_D4,4, NOTE_C4,2,
  NOTE_G4,4, NOTE_G4,4, NOTE_F4,4, NOTE_F4,4, NOTE_E4,4, NOTE_E4,4, NOTE_D4,2,
  NOTE_G4,4, NOTE_G4,4, NOTE_F4,4, NOTE_F4,4, NOTE_E4,4, NOTE_E4,4, NOTE_D4,2,
  NOTE_C4,4, NOTE_C4,4, NOTE_G4,4, NOTE_G4,4, NOTE_A4,4, NOTE_A4,4, NOTE_G4,2,
  NOTE_F4,4, NOTE_F4,4, NOTE_E4,4, NOTE_E4,4, NOTE_D4,4, NOTE_D4,4, NOTE_C4,2,
  REST,4
};

// Example: Star Wars Theme
const int starWars[] = {
  NOTE_A4,8, NOTE_A4,8, NOTE_A4,8, NOTE_F4,4, NOTE_C5,2,
  NOTE_A4,8, NOTE_F4,4, NOTE_C5,2, NOTE_A4,2,
  NOTE_E5,8, NOTE_E5,8, NOTE_E5,8, NOTE_F5,4, NOTE_C5,2,
  NOTE_A4,8, NOTE_F4,4, NOTE_C5,2, NOTE_A4,2,
  NOTE_A5,8, NOTE_A4,8, NOTE_A4,8, NOTE_A5,8, NOTE_GS5,4, NOTE_G5,2,
  NOTE_DS5,8, NOTE_D5,8, NOTE_CS5,4, NOTE_C5,2, NOTE_AS4,8,
  NOTE_A4,8, NOTE_GS4,4, NOTE_G4,2, NOTE_DS5,8,
  NOTE_D5,8, NOTE_CS5,4, NOTE_C5,2, NOTE_AS4,8,
  NOTE_A4,8, NOTE_GS4,4, NOTE_G4,2, NOTE_DS5,8,
  REST,4
};

#endif
