
#ifndef GAME_SONGS_H
#define GAME_SONGS_H

// Super Mario Bros Theme
const int marioTheme[] = {
  NOTE_E5,8, NOTE_E5,8, REST,8, NOTE_E5,8, REST,8, NOTE_C5,8, NOTE_E5,4,
  NOTE_G5,4, REST,4, NOTE_G4,4, REST,4,
  NOTE_C5,4, REST,4, NOTE_G4,4, REST,8, NOTE_E4,8,
  REST,8, NOTE_A4,4, NOTE_B4,4, NOTE_AS4,8, NOTE_A4,4,
  NOTE_G4,8, NOTE_E5,8, NOTE_G5,8, NOTE_A5,4, NOTE_F5,8, NOTE_G5,8,
  REST,8, NOTE_E5,4, NOTE_C5,8, NOTE_D5,8, NOTE_B4,4,
  REST,4,
  
  NOTE_C5,4, REST,4, NOTE_G4,4, REST,4, NOTE_E4,4,
  REST,8, NOTE_A4,4, NOTE_B4,4, NOTE_AS4,8, NOTE_A4,4,
  NOTE_G4,8, NOTE_E5,8, NOTE_G5,8, NOTE_A5,4, NOTE_F5,8, NOTE_G5,8,
  REST,8, NOTE_E5,4, NOTE_C5,8, NOTE_D5,8, NOTE_B4,4,
  REST,4
};

// Tetris Theme (Korobeiniki)
const int tetrisTheme[] = {
  NOTE_E5,4, NOTE_B4,8, NOTE_C5,8, NOTE_D5,4, NOTE_C5,8, NOTE_B4,8,
  NOTE_A4,4, NOTE_A4,8, NOTE_C5,8, NOTE_E5,4, NOTE_D5,8, NOTE_C5,8,
  NOTE_B4,2, NOTE_C5,8, NOTE_D5,4, NOTE_E5,4,
  NOTE_C5,4, NOTE_A4,4, NOTE_A4,2,
  REST,4, NOTE_D5,4, NOTE_F5,8, NOTE_A5,4, NOTE_G5,8, NOTE_F5,8,
  NOTE_E5,2, NOTE_C5,8, NOTE_E5,4, NOTE_D5,8, NOTE_C5,8,
  NOTE_B4,2, NOTE_B4,8, NOTE_C5,8, NOTE_D5,4, NOTE_E5,4,
  NOTE_C5,4, NOTE_A4,4, NOTE_A4,2,
  REST,4
};

#endif